<svg width="209" height="32" viewBox="0 0 209 32" fill="none" xmlns="http://www.w3.org/2000/svg">
<path d="M55.4111 7.79372C56.9667 8.61386 58.1692 9.77731 59.0282 11.265C59.8776 12.7527 60.3071 14.4693 60.3071 16.4243C60.3071 18.3506 59.8776 20.0672 59.0282 21.5644C58.1788 23.0617 56.9667 24.2251 55.4015 25.0453C53.8363 25.8654 52.023 26.285 49.9615 26.285H42.5651V6.56351H49.9615C52.0325 6.56351 53.8554 6.97358 55.4111 7.79372ZM53.8936 20.6394C54.9052 19.6476 55.4111 18.2457 55.4111 16.4243C55.4111 14.6123 54.9052 13.1914 53.8936 12.1805C52.8819 11.1696 51.4695 10.6642 49.6466 10.6642H47.3656V22.1271H49.6466C51.4599 22.1271 52.8819 21.6312 53.8936 20.6394Z" fill="black"/>
<path d="M65.4321 25.5221C64.2009 24.8641 63.237 23.9295 62.5403 22.7088C61.8341 21.4882 61.4905 20.0672 61.4905 18.4365C61.4905 16.8248 61.8436 15.4039 62.5594 14.1832C63.2752 12.953 64.2487 12.0184 65.4798 11.3604C66.7205 10.7024 68.1044 10.3781 69.6409 10.3781C71.1775 10.3781 72.5613 10.7024 73.802 11.3604C75.0427 12.0184 76.0162 12.953 76.7224 14.1832C77.4382 15.4134 77.7914 16.8248 77.7914 18.4365C77.7914 20.0481 77.4287 21.4691 76.7129 22.6898C75.9876 23.92 75.0045 24.8545 73.7639 25.5126C72.5136 26.1706 71.1298 26.4948 69.5932 26.4948C68.0375 26.5044 66.6632 26.1801 65.4321 25.5221ZM71.9219 21.3356C72.5709 20.6585 72.8954 19.6953 72.8954 18.446C72.8954 17.1872 72.5804 16.224 71.9505 15.5564C71.3206 14.8793 70.5476 14.5456 69.6314 14.5456C68.6961 14.5456 67.9135 14.8793 67.3027 15.5469C66.6823 16.2145 66.3769 17.1776 66.3769 18.4555C66.3769 19.7144 66.6823 20.6775 67.2931 21.3451C67.9039 22.0222 68.6674 22.356 69.5837 22.356C70.4999 22.3464 71.2825 22.0127 71.9219 21.3356Z" fill="black"/>
<path d="M95.2757 10.607V26.285H90.4656V24.1488C89.9788 24.845 89.3203 25.3981 88.4804 25.8177C87.6501 26.2373 86.7244 26.4471 85.7127 26.4471C84.5102 26.4471 83.4508 26.1801 82.5346 25.6461C81.6184 25.112 80.9026 24.3396 80.3968 23.3287C79.891 22.3178 79.6333 21.1258 79.6333 19.762V10.607H84.4148V19.1231C84.4148 20.1721 84.682 20.9827 85.226 21.5644C85.77 22.1462 86.5049 22.4323 87.4211 22.4323C88.3564 22.4323 89.1008 22.1462 89.6448 21.5644C90.1888 20.9827 90.456 20.1721 90.456 19.1231V10.607H95.2757Z" fill="black"/>
<path d="M106.91 26.285H104.466C102.72 26.285 101.365 25.8559 100.391 25.0071C99.4177 24.1584 98.931 22.766 98.931 20.8397V14.5933H97.0222V10.607H98.931V6.78285H103.741V10.607H106.891V14.5933H103.741V20.8873C103.741 21.3546 103.856 21.6884 104.075 21.8982C104.304 22.108 104.676 22.2034 105.201 22.2034H106.91V26.285Z" fill="black"/>
<path d="M112.016 25.5221C110.784 24.8641 109.82 23.9295 109.124 22.7088C108.418 21.4882 108.074 20.0672 108.074 18.4365C108.074 16.8248 108.427 15.4039 109.143 14.1832C109.859 12.953 110.832 12.0184 112.063 11.3604C113.304 10.7024 114.688 10.3781 116.224 10.3781C117.761 10.3781 119.145 10.7024 120.385 11.3604C121.626 12.0184 122.6 12.953 123.306 14.1832C124.022 15.4134 124.375 16.8248 124.375 18.4365C124.375 20.0481 124.012 21.4691 123.296 22.6898C122.571 23.92 121.588 24.8545 120.347 25.5126C119.097 26.1706 117.713 26.4948 116.177 26.4948C114.621 26.5044 113.247 26.1801 112.016 25.5221ZM118.505 21.3356C119.154 20.6585 119.479 19.6953 119.479 18.446C119.479 17.1872 119.164 16.224 118.534 15.5564C117.904 14.8793 117.131 14.5456 116.215 14.5456C115.28 14.5456 114.497 14.8793 113.886 15.5469C113.266 16.2145 112.96 17.1776 112.96 18.4555C112.96 19.7144 113.266 20.6775 113.877 21.3451C114.487 22.0222 115.251 22.356 116.167 22.356C117.083 22.3464 117.866 22.0127 118.505 21.3356Z" fill="black"/>
<path d="M133.279 11.1792C132.439 11.6751 131.733 12.3522 131.17 13.22V10.607H126.36V26.285H131.17V19.0087C131.17 17.7212 131.466 16.8153 132.067 16.3003C132.668 15.7853 133.556 15.5278 134.749 15.5278C134.854 13.6873 135.302 11.9898 136.085 10.4639V10.4449C135.064 10.4353 134.129 10.6833 133.279 11.1792Z" fill="black"/>
<path d="M150.935 12.8004C150.582 12.1424 150.067 11.6465 149.399 11.2936C148.731 10.9503 147.948 10.7691 147.051 10.7691C145.495 10.7691 144.245 11.2841 143.31 12.3045C142.374 13.3249 141.907 14.6886 141.907 16.3957C141.907 18.2171 142.403 19.6285 143.386 20.6489C144.369 21.6693 145.724 22.1843 147.452 22.1843C148.635 22.1843 149.628 21.8887 150.449 21.2879C151.26 20.6871 151.861 19.8288 152.233 18.7035H146.135V15.1654H156.595V19.6285C156.242 20.8301 155.631 21.9459 154.781 22.9758C153.932 24.0058 152.844 24.8355 151.537 25.4744C150.229 26.1134 148.74 26.4281 147.099 26.4281C145.152 26.4281 143.415 25.9989 141.888 25.1502C140.361 24.3014 139.168 23.1094 138.318 21.5931C137.469 20.0767 137.039 18.3411 137.039 16.3957C137.039 14.4502 137.469 12.7146 138.318 11.1887C139.168 9.66287 140.361 8.47081 141.878 7.62206C143.396 6.77331 145.133 6.34417 147.08 6.34417C149.437 6.34417 151.432 6.91636 153.054 8.06074C154.676 9.20512 155.745 10.7882 156.27 12.8099H150.935V12.8004Z" fill="black"/>
<path d="M161.691 25.5221C160.46 24.8641 159.496 23.9295 158.799 22.7088C158.093 21.4882 157.75 20.0672 157.75 18.4365C157.75 16.8248 158.103 15.4039 158.819 14.1832C159.534 12.953 160.508 12.0184 161.739 11.3604C162.98 10.7024 164.363 10.3781 165.9 10.3781C167.437 10.3781 168.82 10.7024 170.061 11.3604C171.302 12.0184 172.275 12.953 172.982 14.1832C173.697 15.4134 174.05 16.8248 174.05 18.4365C174.05 20.0481 173.688 21.4691 172.972 22.6898C172.247 23.92 171.264 24.8545 170.023 25.5126C168.773 26.1706 167.389 26.4948 165.852 26.4948C164.297 26.5044 162.922 26.1801 161.691 25.5221ZM168.191 21.3356C168.84 20.6585 169.164 19.6953 169.164 18.446C169.164 17.1872 168.849 16.224 168.219 15.5564C167.589 14.8793 166.816 14.5456 165.9 14.5456C164.965 14.5456 164.182 14.8793 163.562 15.5469C162.941 16.2145 162.636 17.1776 162.636 18.4555C162.636 19.7144 162.941 20.6775 163.552 21.3451C164.163 22.0222 164.927 22.356 165.843 22.356C166.759 22.3464 167.542 22.0127 168.191 21.3356Z" fill="black"/>
<path d="M179.042 25.5221C177.811 24.8641 176.847 23.9295 176.15 22.7088C175.444 21.4882 175.1 20.0672 175.1 18.4365C175.1 16.8248 175.453 15.4039 176.169 14.1832C176.885 12.953 177.858 12.0184 179.09 11.3604C180.33 10.7024 181.714 10.3781 183.251 10.3781C184.787 10.3781 186.171 10.7024 187.412 11.3604C188.653 12.0184 189.626 12.953 190.332 14.1832C191.048 15.4134 191.401 16.8248 191.401 18.4365C191.401 20.0481 191.038 21.4691 190.323 22.6898C189.597 23.92 188.614 24.8545 187.374 25.5126C186.123 26.1706 184.74 26.4948 183.203 26.4948C181.647 26.5044 180.263 26.1801 179.042 25.5221ZM185.532 21.3356C186.181 20.6585 186.505 19.6953 186.505 18.446C186.505 17.1872 186.19 16.224 185.56 15.5564C184.93 14.8793 184.157 14.5456 183.241 14.5456C182.306 14.5456 181.523 14.8793 180.903 15.5469C180.283 16.2145 179.977 17.1776 179.977 18.4555C179.977 19.7144 180.283 20.6775 180.893 21.3451C181.504 22.0222 182.268 22.356 183.184 22.356C184.1 22.3464 184.883 22.0127 185.532 21.3356Z" fill="black"/>
<path d="M193.348 14.1736C193.959 12.953 194.789 12.0184 195.839 11.3604C196.889 10.7024 198.063 10.3781 199.351 10.3781C200.382 10.3781 201.327 10.5975 202.176 11.0266C203.026 11.4557 203.703 12.0375 204.19 12.7718V5.49542H209V26.285H204.19V24.0344C203.741 24.7878 203.102 25.379 202.262 25.8368C201.432 26.285 200.458 26.5139 199.351 26.5139C198.053 26.5139 196.889 26.1801 195.839 25.5126C194.789 24.845 193.959 23.9009 193.348 22.6707C192.737 21.4405 192.432 20.0291 192.432 18.4174C192.432 16.8057 192.737 15.3943 193.348 14.1736ZM203.188 15.6041C202.52 14.908 201.709 14.5646 200.754 14.5646C199.8 14.5646 198.989 14.908 198.32 15.5946C197.652 16.2812 197.318 17.2158 197.318 18.4174C197.318 19.619 197.652 20.5631 198.32 21.2688C198.989 21.9745 199.8 22.3178 200.754 22.3178C201.709 22.3178 202.52 21.9745 203.188 21.2783C203.856 20.5822 204.19 19.6381 204.19 18.4365C204.19 17.2444 203.856 16.3003 203.188 15.6041Z" fill="black"/>
<path d="M23.9928 0.421991C23.4297 0.984645 23.4297 1.89061 23.9928 2.45327C26.4264 4.88508 26.4264 8.8332 23.9928 11.265C21.5591 13.6968 17.6079 13.6968 15.1742 11.265C12.7406 8.8332 12.7406 4.88508 15.1742 2.45327C15.7373 1.89061 15.7373 0.984645 15.1742 0.421991C14.6112 -0.140664 13.7045 -0.140664 13.1414 0.421991C9.59111 3.96957 9.59111 9.73916 13.1414 13.2867C13.7999 13.9448 14.5253 14.4693 15.2983 14.8889L13.8095 20.0005C13.695 19.9718 13.6186 19.9528 13.5423 19.9337C12.1775 19.619 10.8223 19.2757 9.45749 18.9896C8.09273 18.7035 6.71841 18.6081 5.3441 18.8942C1.54566 19.7048 -0.687602 23.2429 0.190431 27.0098C0.829868 29.7468 3.3399 31.8448 6.11715 31.9879C8.33132 32.1023 10.2496 31.4061 11.9198 29.9852C13.6377 28.5356 14.8116 26.6951 15.6419 24.6257C15.7373 24.3873 15.8328 24.1584 15.9378 23.9104C17.7797 24.4635 19.6026 25.0071 21.4159 25.5698C21.5018 25.5984 21.5877 25.7224 21.6068 25.8177C21.9599 27.6964 23.8401 28.9934 25.7011 28.6405C27.629 28.2781 28.946 26.4376 28.612 24.5494C28.1348 21.7933 25.0617 20.6013 22.857 22.3274C22.6948 22.4513 22.5707 22.4704 22.3798 22.4132C21.2728 22.0603 20.1657 21.7266 19.049 21.3832C18.3905 21.183 17.732 20.9923 17.0639 20.792L18.486 15.8807C21.1678 16.1954 23.9546 15.3371 26.0065 13.2867C29.5568 9.73916 29.5568 3.96957 26.0065 0.421991C25.4625 -0.140664 24.5558 -0.140664 23.9928 0.421991ZM9.41932 28.2781C8.22634 29.0506 6.92838 29.3748 5.52543 29.0029C2.90088 28.3068 1.88923 25.1406 3.57849 22.9758C4.37063 21.9554 5.44908 21.5072 6.70887 21.4405C7.7396 21.3832 8.75125 21.5549 9.75335 21.7933C10.8604 22.0508 11.9675 22.356 13.0746 22.6421C13.1319 22.6516 13.1796 22.6802 13.2655 22.7088C12.502 24.9308 11.4522 26.9526 9.41932 28.2781Z" fill="#1780FF"/>
</svg>
